# 3ds Max Wavefront OBJ Exporter v0.97b - (c)2007 guruware
# File Created: 15.05.2020 20:53:40

mtllib marco.mtl

#
# object InteriorDoorProfile
#

v  22.8396 0.2169 1.3821
v  22.8396 81.8962 1.3821
v  20.3927 79.9656 1.3821
v  20.3927 0.2169 1.3821
v  20.3927 79.9656 -1.3821
v  20.3927 0.2169 -1.3821
v  22.8396 81.8962 -1.3821
v  22.8396 0.2169 -1.3821
v  -20.3203 79.9656 1.3821
v  -22.8396 81.8962 1.3821
v  -22.8396 0.2169 1.3821
v  -20.3203 0.2169 1.3821
v  -20.3203 0.2169 -1.3821
v  -20.3203 79.9656 -1.3821
v  -22.8396 0.2169 -1.3821
v  -22.8396 81.8962 -1.3821
# 16 vertices

vn 0.0000 0.0000 1.0000
vn -1.0000 0.0000 -0.0000
vn 0.0000 0.0000 -1.0000
vn 1.0000 0.0000 -0.0000
vn 0.0000 -1.0000 -0.0000
# 5 vertex normals

vt 0.1290 0.0514 0.0000
vt 0.1290 0.9667 0.0000
vt 0.1652 0.9317 0.0000
vt 0.1652 0.0514 0.0000
vt 0.7577 0.9563 0.0000
vt 0.7922 0.9563 0.0000
vt 0.7922 0.1168 0.0000
vt 0.7577 0.1168 0.0000
vt 0.8398 0.9317 0.0000
vt 0.8986 0.9667 0.0000
vt 0.8986 0.0514 0.0000
vt 0.8398 0.0514 0.0000
vt 0.8397 0.9317 0.0000
vt 0.8994 0.9667 0.0000
vt 0.8994 0.0514 0.0000
vt 0.8397 0.0514 0.0000
vt 0.7909 0.9459 0.0000
vt 0.7909 0.1273 0.0000
vt 0.7555 0.1273 0.0000
vt 0.7555 0.9459 0.0000
vt 0.1654 0.9317 0.0000
vt 0.1654 0.0514 0.0000
vt 0.1282 0.0514 0.0000
vt 0.1282 0.9667 0.0000
vt 0.7608 0.1677 0.0000
vt 0.7608 0.7927 0.0000
vt 0.8032 0.7927 0.0000
vt 0.8032 0.1677 0.0000
# 28 texture coords

o InteriorDoorProfile
g InteriorDoorProfile
usemtl InteriorDoor
s off
f 1/1/1 2/2/1 3/3/1 
f 3/3/1 4/4/1 1/1/1 
f 3/5/2 5/6/2 6/7/2 
f 6/7/2 4/8/2 3/5/2 
f 5/9/3 7/10/3 8/11/3 
f 8/11/3 6/12/3 5/9/3 
f 9/13/1 10/14/1 11/15/1 
f 11/15/1 12/16/1 9/13/1 
f 9/17/4 12/18/4 13/19/4 
f 13/19/4 14/20/4 9/17/4 
f 14/21/3 13/22/3 15/23/3 
f 15/23/3 16/24/3 14/21/3 
f 9/13/1 3/3/1 2/2/1 
f 2/2/1 10/14/1 9/13/1 
f 14/25/5 5/26/5 3/27/5 
f 3/27/5 9/28/5 14/25/5 
f 16/24/3 7/10/3 5/9/3 
f 5/9/3 14/21/3 16/24/3 
# 18 faces

