# 3ds Max Wavefront OBJ Exporter v0.97b - (c)2007 guruware
# File Created: 21.05.2020 01:43:30

mtllib sspuerta.mtl

#
# object InteriorDoor
#

v  -115.1635 0.1387 -2.5070
v  -0.0756 0.1387 -2.5070
v  -0.0756 0.1387 2.5072
v  -115.1635 0.1387 2.5072
v  -0.0756 226.3724 -2.5070
v  -115.1635 226.3724 -2.5070
v  -115.1635 226.3724 2.5072
v  -0.0756 226.3724 2.5072
# 8 vertices

vn 0.0000 -1.0000 -0.0000
vn 0.0000 1.0000 -0.0000
vn 0.0000 0.0000 1.0000
vn 1.0000 0.0000 -0.0000
vn 0.0000 0.0000 -1.0000
vn -1.0000 0.0000 -0.0000
# 6 vertex normals

vt 0.7629 0.7990 0.0000
vt 0.7629 0.1700 0.0000
vt 0.7903 0.1700 0.0000
vt 0.7903 0.7990 0.0000
vt 0.7994 0.0942 0.0000
vt 0.7994 0.9139 0.0000
vt 0.7637 0.9139 0.0000
vt 0.7637 0.0942 0.0000
vt 0.8064 0.0375 0.0000
vt 0.8064 0.9625 0.0000
vt 0.1936 0.9625 0.0000
vt 0.1936 0.0375 0.0000
vt 0.7744 0.8622 0.0000
vt 0.7744 0.1427 0.0000
vt 0.7906 0.1427 0.0000
vt 0.7906 0.8622 0.0000
vt 0.7690 0.1163 0.0000
vt 0.7862 0.1163 0.0000
vt 0.7862 0.8739 0.0000
vt 0.7690 0.8739 0.0000
# 20 texture coords

o InteriorDoor
g InteriorDoor
usemtl InteriorDoor
s off
f 1/1/1 2/2/1 3/3/1 
f 3/3/1 4/4/1 1/1/1 
f 5/5/2 6/6/2 7/7/2 
f 7/7/2 8/8/2 5/5/2 
f 3/9/3 8/10/3 7/11/3 
f 7/11/3 4/12/3 3/9/3 
f 8/13/4 3/14/4 2/15/4 
f 2/15/4 5/16/4 8/13/4 
f 6/10/5 5/11/5 2/12/5 
f 2/12/5 1/9/5 6/10/5 
f 1/17/6 4/18/6 7/19/6 
f 7/19/6 6/20/6 1/17/6 
# 12 faces

