# 3ds Max Wavefront OBJ Exporter v0.97b - (c)2007 guruware
# File Created: 15.05.2020 19:58:48

mtllib cuadro1.mtl

#
# object Canvas7
#

v  34.4095 0.8332 -1.5321
v  34.4094 49.6295 -1.5321
v  34.4094 49.6295 -0.2377
v  34.4095 0.8332 -0.2377
v  -41.8412 49.6295 -1.5321
v  -41.8412 49.6295 -0.2376
v  -41.8412 0.8332 -1.5321
v  -41.8412 0.8332 -0.2376
# 8 vertices

vn 1.0000 0.0000 -0.0000
vn 0.0000 1.0000 -0.0000
vn -1.0000 0.0000 -0.0000
vn 0.0000 -1.0000 -0.0000
vn 0.0000 0.0000 1.0000
# 5 vertex normals

o Canvas7
g Canvas7
usemtl Material__27
s off
f 1//1 2//1 3//1 
f 3//1 4//1 1//1 
f 2//2 5//2 6//2 
f 6//2 3//2 2//2 
f 5//3 7//3 8//3 
f 8//3 6//3 5//3 
f 7//4 1//4 4//4 
f 4//4 8//4 7//4 
f 3//5 6//5 8//5 
f 8//5 4//5 3//5 
# 10 faces

#
# object Metal7
#

v  32.8388 5.6321 -0.2862
v  32.8388 4.6149 -0.2862
v  33.5778 4.6149 -0.2862
v  33.5778 5.6321 -0.2862
v  32.8388 2.2796 -0.2862
v  33.5778 1.5708 -0.2862
v  33.5778 5.6321 -1.4790
v  32.8388 5.6321 -1.4790
v  32.8388 44.7942 -1.4790
v  33.5778 44.7942 -1.4790
v  -36.5755 2.2796 -0.2862
v  -36.5755 1.5708 -0.2862
v  29.2078 1.5708 -0.2862
v  29.2078 2.2796 -0.2862
v  30.2582 2.2796 -0.2862
v  30.2582 1.5708 -0.2862
v  33.5778 4.6149 -1.4790
v  32.8388 4.6149 -1.4790
v  33.5778 1.5708 -1.4790
v  32.8388 2.2796 -1.4790
v  32.8388 44.7942 -0.2862
v  -36.5755 2.2796 -1.4790
v  29.2078 2.2796 -1.4790
v  29.2078 1.5708 -1.4790
v  -36.5755 1.5708 -1.4790
v  30.2582 2.2796 -1.4790
v  30.2582 1.5708 -1.4790
v  33.5778 44.7942 -0.2862
v  -36.5755 48.1467 -0.2862
v  29.2078 48.1467 -0.2862
v  29.2078 48.8555 -0.2862
v  -36.5755 48.8555 -0.2862
v  33.5778 45.8114 -0.2862
v  32.8388 45.8114 -0.2862
v  33.5778 48.8555 -0.2862
v  32.8388 48.1467 -0.2862
v  -36.5755 48.1467 -1.4790
v  -36.5755 48.8555 -1.4790
v  29.2078 48.8555 -1.4790
v  29.2078 48.1467 -1.4790
v  30.2582 48.1467 -0.2862
v  30.2582 48.8555 -0.2862
v  32.8388 45.8114 -1.4790
v  33.5778 45.8114 -1.4790
v  32.8388 48.1467 -1.4790
v  33.5778 48.8555 -1.4790
v  30.2582 48.1467 -1.4790
v  30.2582 48.8555 -1.4790
v  -40.9455 5.6321 -0.2862
v  -40.2065 5.6321 -0.2862
v  -40.2065 44.7942 -0.2862
v  -40.9455 44.7942 -0.2862
v  -40.9455 4.6149 -0.2862
v  -40.2065 4.6149 -0.2862
v  -40.9455 1.5708 -0.2862
v  -40.2065 2.2796 -0.2862
v  -40.2065 5.6321 -1.4790
v  -40.9455 5.6321 -1.4790
v  -40.9455 44.7942 -1.4790
v  -40.2065 44.7942 -1.4790
v  -37.6259 2.2796 -0.2862
v  -37.6259 1.5708 -0.2862
v  -40.2065 4.6149 -1.4790
v  -40.9455 4.6149 -1.4790
v  -40.2065 2.2796 -1.4790
v  -40.9455 1.5708 -1.4790
v  -37.6259 2.2796 -1.4790
v  -37.6259 1.5708 -1.4790
v  -40.2065 45.8114 -0.2862
v  -40.9455 45.8114 -0.2862
v  -40.2065 48.1467 -0.2862
v  -40.9455 48.8555 -0.2862
v  -37.6259 48.1467 -0.2862
v  -37.6259 48.8555 -0.2862
v  -40.9455 45.8114 -1.4790
v  -40.2065 45.8114 -1.4790
v  -40.9455 48.8555 -1.4790
v  -40.2065 48.1467 -1.4790
v  -37.6259 48.1467 -1.4790
v  -37.6259 48.8555 -1.4790
# 80 vertices

vn 0.0000 0.0000 1.0000
vn 0.0000 0.0000 -1.0000
vn -1.0000 0.0000 -0.0000
vn 0.0000 1.0000 -0.0000
vn 0.0000 -1.0000 -0.0000
vn 1.0000 0.0000 -0.0000
vn 0.6863 -0.7273 -0.0000
vn -0.6935 0.7204 -0.0000
vn 0.6863 0.7273 -0.0000
vn -0.6935 -0.7204 -0.0000
vn -0.6863 -0.7273 -0.0000
vn 0.6935 0.7204 -0.0000
vn -0.6863 0.7273 -0.0000
vn 0.6935 -0.7204 -0.0000
# 14 vertex normals

o Metal7
g Metal7
usemtl Material__45
s off
f 9//6 10//6 11//6 
f 11//6 12//6 9//6 
f 10//6 13//6 14//6 
f 14//6 11//6 10//6 
f 15//7 16//7 17//7 
f 17//7 18//7 15//7 
f 19//6 20//6 21//6 
f 21//6 22//6 19//6 
f 23//6 22//6 21//6 
f 21//6 24//6 23//6 
f 13//6 23//6 24//6 
f 24//6 14//6 13//6 
f 10//6 9//6 22//6 
f 22//6 23//6 10//6 
f 16//7 15//7 25//7 
f 25//7 26//7 16//7 
f 26//7 25//7 27//7 
f 27//7 28//7 26//7 
f 16//8 9//8 29//8 
f 29//8 17//8 16//8 
f 30//7 31//7 32//7 
f 32//7 33//7 30//7 
f 34//7 35//7 32//7 
f 32//7 31//7 34//7 
f 28//7 27//7 35//7 
f 35//7 34//7 28//7 
f 26//7 34//7 31//7 
f 31//7 16//7 26//7 
f 13//9 28//9 34//9 
f 34//9 23//9 13//9 
f 10//8 26//8 28//8 
f 28//8 13//8 10//8 
f 24//10 35//10 27//10 
f 27//10 14//10 24//10 
f 21//10 32//10 35//10 
f 35//10 24//10 21//10 
f 36//11 12//11 15//11 
f 15//11 18//11 36//11 
f 11//11 25//11 15//11 
f 15//11 12//11 11//11 
f 19//9 22//9 31//9 
f 31//9 30//9 19//9 
f 23//12 34//12 26//12 
f 26//12 10//12 23//12 
f 9//13 16//13 31//13 
f 31//13 22//13 9//13 
f 32//10 21//10 20//10 
f 20//10 33//10 32//10 
f 14//11 27//11 25//11 
f 25//11 11//11 14//11 
f 37//6 38//6 39//6 
f 39//6 40//6 37//6 
f 29//6 36//6 41//6 
f 41//6 42//6 29//6 
f 42//6 41//6 43//6 
f 43//6 44//6 42//6 
f 45//7 46//7 47//7 
f 47//7 48//7 45//7 
f 49//6 50//6 39//6 
f 39//6 38//6 49//6 
f 44//6 43//6 50//6 
f 50//6 49//6 44//6 
f 42//6 49//6 38//6 
f 38//6 29//6 42//6 
f 17//7 51//7 52//7 
f 52//7 18//7 17//7 
f 51//7 53//7 54//7 
f 54//7 52//7 51//7 
f 37//10 45//10 48//10 
f 48//10 38//10 37//10 
f 55//7 48//7 47//7 
f 47//7 56//7 55//7 
f 53//7 55//7 56//7 
f 56//7 54//7 53//7 
f 51//7 17//7 48//7 
f 48//7 55//7 51//7 
f 44//10 49//10 55//10 
f 55//10 53//10 44//10 
f 42//8 44//8 53//8 
f 53//8 51//8 42//8 
f 50//9 43//9 54//9 
f 54//9 56//9 50//9 
f 39//9 50//9 56//9 
f 56//9 47//9 39//9 
f 41//11 36//11 18//11 
f 18//11 52//11 41//11 
f 49//14 42//14 51//14 
f 51//14 55//14 49//14 
f 29//15 38//15 48//15 
f 48//15 17//15 29//15 
f 39//9 47//9 46//9 
f 46//9 40//9 39//9 
f 43//11 41//11 52//11 
f 52//11 54//11 43//11 
f 57//6 58//6 59//6 
f 59//6 60//6 57//6 
f 58//6 57//6 61//6 
f 61//6 62//6 58//6 
f 62//6 61//6 63//6 
f 63//6 64//6 62//6 
f 65//7 66//7 67//7 
f 67//7 68//7 65//7 
f 69//6 70//6 20//6 
f 20//6 19//6 69//6 
f 64//6 63//6 70//6 
f 70//6 69//6 64//6 
f 62//6 69//6 19//6 
f 19//6 58//6 62//6 
f 65//7 71//7 72//7 
f 72//7 66//7 65//7 
f 71//7 73//7 74//7 
f 74//7 72//7 71//7 
f 58//11 65//11 68//11 
f 68//11 59//11 58//11 
f 75//7 30//7 33//7 
f 33//7 76//7 75//7 
f 73//7 75//7 76//7 
f 76//7 74//7 73//7 
f 71//7 65//7 30//7 
f 30//7 75//7 71//7 
f 64//9 69//9 75//9 
f 75//9 73//9 64//9 
f 62//11 64//11 73//11 
f 73//11 71//11 62//11 
f 70//10 63//10 74//10 
f 74//10 76//10 70//10 
f 20//10 70//10 76//10 
f 76//10 33//10 20//10 
f 60//8 67//8 66//8 
f 66//8 57//8 60//8 
f 61//8 57//8 66//8 
f 66//8 72//8 61//8 
f 69//16 62//16 71//16 
f 71//16 75//16 69//16 
f 58//17 19//17 30//17 
f 30//17 65//17 58//17 
f 63//8 61//8 72//8 
f 72//8 74//8 63//8 
f 59//6 77//6 78//6 
f 78//6 60//6 59//6 
f 77//6 79//6 80//6 
f 80//6 78//6 77//6 
f 81//6 37//6 40//6 
f 40//6 82//6 81//6 
f 79//6 81//6 82//6 
f 82//6 80//6 79//6 
f 77//6 59//6 37//6 
f 37//6 81//6 77//6 
f 68//7 67//7 83//7 
f 83//7 84//7 68//7 
f 84//7 83//7 85//7 
f 85//7 86//7 84//7 
f 87//7 88//7 46//7 
f 46//7 45//7 87//7 
f 86//7 85//7 88//7 
f 88//7 87//7 86//7 
f 84//7 87//7 45//7 
f 45//7 68//7 84//7 
f 79//10 86//10 87//10 
f 87//10 81//10 79//10 
f 77//11 84//11 86//11 
f 86//11 79//11 77//11 
f 82//9 88//9 85//9 
f 85//9 80//9 82//9 
f 40//9 46//9 88//9 
f 88//9 82//9 40//9 
f 78//8 83//8 67//8 
f 67//8 60//8 78//8 
f 81//18 87//18 84//18 
f 84//18 77//18 81//18 
f 59//19 68//19 45//19 
f 45//19 37//19 59//19 
f 80//8 85//8 83//8 
f 83//8 78//8 80//8 
f 9//6 12//6 36//6 
f 36//6 29//6 9//6 
# 176 faces

