# 3ds Max Wavefront OBJ Exporter v0.97b - (c)2007 guruware
# File Created: 12.05.2020 23:16:50

mtllib cuadro.mtl

#
# object Canvas7
#

v  34.4095 0.8332 -1.5321
v  34.4094 49.6295 -1.5321
v  34.4094 49.6295 -0.2377
v  34.4095 0.8332 -0.2377
v  -41.8412 49.6295 -1.5321
v  -41.8412 49.6295 -0.2376
v  -41.8412 0.8332 -1.5321
v  -41.8412 0.8332 -0.2376
# 8 vertices

vn 1.0000 0.0000 -0.0000
vn -0.0000 1.0000 -0.0000
vn -1.0000 -0.0000 0.0000
vn 0.0000 -1.0000 0.0000
vn 0.0000 0.0000 1.0000
# 5 vertex normals

vt 0.1510 0.3832 0.0000
vt 0.9173 0.3832 0.0000
vt 0.9173 0.4173 0.0000
vt 0.1510 0.4173 0.0000
vt 0.4658 0.0000 0.0000
vt 0.4658 1.0000 0.0000
vt 0.4317 1.0000 0.0000
vt 0.4317 0.0000 0.0000
vt 0.1510 0.3490 0.0000
vt 0.9173 0.3490 0.0000
vt 0.5000 0.0000 0.0000
vt 0.5000 1.0000 0.0000
vt 1.0000 1.0000 0.0000
vt 0.0000 1.0000 0.0000
vt 0.0000 0.0000 0.0000
vt 1.0000 0.0000 0.0000
# 16 texture coords

o Canvas7
g Canvas7
usemtl Material__46
s off
f 1/1/1 2/2/1 3/3/1 
f 3/3/1 4/4/1 1/1/1 
f 2/5/2 5/6/2 6/7/2 
f 6/7/2 3/8/2 2/5/2 
f 5/9/3 7/10/3 8/2/3 
f 8/2/3 6/1/3 5/9/3 
f 7/11/4 1/12/4 4/6/4 
f 4/6/4 8/5/4 7/11/4 
f 3/13/5 6/14/5 8/15/5 
f 8/15/5 4/16/5 3/13/5 
# 10 faces

#
# object Metal7
#

v  32.8388 5.6321 -0.2862
v  32.8388 4.6149 -0.2862
v  33.5778 4.6149 -0.2862
v  33.5778 5.6321 -0.2862
v  32.8388 2.2796 -0.2862
v  33.5778 1.5708 -0.2862
v  33.5778 5.6321 -1.4790
v  32.8388 5.6321 -1.4790
v  32.8388 44.7942 -1.4790
v  33.5778 44.7942 -1.4790
v  -36.5755 2.2796 -0.2862
v  -36.5755 1.5708 -0.2862
v  29.2078 1.5708 -0.2862
v  29.2078 2.2796 -0.2862
v  30.2582 2.2796 -0.2862
v  30.2582 1.5708 -0.2862
v  33.5778 4.6149 -1.4790
v  32.8388 4.6149 -1.4790
v  33.5778 1.5708 -1.4790
v  32.8388 2.2796 -1.4790
v  32.8388 44.7942 -0.2862
v  -36.5755 2.2796 -1.4790
v  29.2078 2.2796 -1.4790
v  29.2078 1.5708 -1.4790
v  -36.5755 1.5708 -1.4790
v  30.2582 2.2796 -1.4790
v  30.2582 1.5708 -1.4790
v  33.5778 44.7942 -0.2862
v  -36.5755 48.1467 -0.2862
v  29.2078 48.1467 -0.2862
v  29.2078 48.8555 -0.2862
v  -36.5755 48.8555 -0.2862
v  33.5778 45.8114 -0.2862
v  32.8388 45.8114 -0.2862
v  33.5778 48.8555 -0.2862
v  32.8388 48.1467 -0.2862
v  -36.5755 48.1467 -1.4790
v  -36.5755 48.8555 -1.4790
v  29.2078 48.8555 -1.4790
v  29.2078 48.1467 -1.4790
v  30.2582 48.1467 -0.2862
v  30.2582 48.8555 -0.2862
v  32.8388 45.8114 -1.4790
v  33.5778 45.8114 -1.4790
v  32.8388 48.1467 -1.4790
v  33.5778 48.8555 -1.4790
v  30.2582 48.1467 -1.4790
v  30.2582 48.8555 -1.4790
v  -40.9455 5.6321 -0.2862
v  -40.2065 5.6321 -0.2862
v  -40.2065 44.7942 -0.2862
v  -40.9455 44.7942 -0.2862
v  -40.9455 4.6149 -0.2862
v  -40.2065 4.6149 -0.2862
v  -40.9455 1.5708 -0.2862
v  -40.2065 2.2796 -0.2862
v  -40.2065 5.6321 -1.4790
v  -40.9455 5.6321 -1.4790
v  -40.9455 44.7942 -1.4790
v  -40.2065 44.7942 -1.4790
v  -37.6259 2.2796 -0.2862
v  -37.6259 1.5708 -0.2862
v  -40.2065 4.6149 -1.4790
v  -40.9455 4.6149 -1.4790
v  -40.2065 2.2796 -1.4790
v  -40.9455 1.5708 -1.4790
v  -37.6259 2.2796 -1.4790
v  -37.6259 1.5708 -1.4790
v  -40.2065 45.8114 -0.2862
v  -40.9455 45.8114 -0.2862
v  -40.2065 48.1467 -0.2862
v  -40.9455 48.8555 -0.2862
v  -37.6259 48.1467 -0.2862
v  -37.6259 48.8555 -0.2862
v  -40.9455 45.8114 -1.4790
v  -40.2065 45.8114 -1.4790
v  -40.9455 48.8555 -1.4790
v  -40.2065 48.1467 -1.4790
v  -37.6259 48.1467 -1.4790
v  -37.6259 48.8555 -1.4790
# 80 vertices

vn 0.0000 0.0000 1.0000
vn -0.0000 -0.0000 -1.0000
vn 0.0000 -0.0000 1.0000
vn -1.0000 -0.0000 0.0000
vn -0.0000 1.0000 -0.0000
vn -1.0000 0.0000 -0.0000
vn 0.0000 -1.0000 0.0000
vn 1.0000 0.0000 -0.0000
vn 0.6863 -0.7273 0.0000
vn -0.6935 0.7204 -0.0000
vn -0.0000 -1.0000 0.0000
vn 0.0000 1.0000 -0.0000
vn 0.6863 0.7273 -0.0000
vn -0.6935 -0.7204 0.0000
vn -0.6863 -0.7273 0.0000
vn 0.6935 0.7204 -0.0000
vn -0.6863 0.7273 -0.0000
vn 0.6935 -0.7204 0.0000
# 18 vertex normals

o Metal7
g Metal7
usemtl Material__45
s off
f 9//6 10//6 11//6 
f 11//6 12//6 9//6 
f 10//6 13//6 14//6 
f 14//6 11//6 10//6 
f 15//7 16//7 17//7 
f 17//7 18//7 15//7 
f 19//8 20//8 21//8 
f 21//8 22//8 19//8 
f 23//6 22//6 21//6 
f 21//6 24//6 23//6 
f 13//6 23//6 24//6 
f 24//6 14//6 13//6 
f 10//6 9//6 22//6 
f 22//6 23//6 10//6 
f 16//7 15//7 25//7 
f 25//7 26//7 16//7 
f 26//7 25//7 27//7 
f 27//7 28//7 26//7 
f 16//9 9//9 29//9 
f 29//9 17//9 16//9 
f 30//7 31//7 32//7 
f 32//7 33//7 30//7 
f 34//7 35//7 32//7 
f 32//7 31//7 34//7 
f 28//7 27//7 35//7 
f 35//7 34//7 28//7 
f 26//7 34//7 31//7 
f 31//7 16//7 26//7 
f 13//10 28//10 34//10 
f 34//10 23//10 13//10 
f 10//11 26//11 28//11 
f 28//11 13//11 10//11 
f 24//12 35//12 27//12 
f 27//12 14//12 24//12 
f 21//12 32//12 35//12 
f 35//12 24//12 21//12 
f 36//13 12//13 15//13 
f 15//13 18//13 36//13 
f 11//13 25//13 15//13 
f 15//13 12//13 11//13 
f 19//10 22//10 31//10 
f 31//10 30//10 19//10 
f 23//14 34//14 26//14 
f 26//14 10//14 23//14 
f 9//15 16//15 31//15 
f 31//15 22//15 9//15 
f 32//12 21//12 20//12 
f 20//12 33//12 32//12 
f 14//13 27//13 25//13 
f 25//13 11//13 14//13 
f 37//6 38//6 39//6 
f 39//6 40//6 37//6 
f 29//6 36//6 41//6 
f 41//6 42//6 29//6 
f 42//6 41//6 43//6 
f 43//6 44//6 42//6 
f 45//7 46//7 47//7 
f 47//7 48//7 45//7 
f 49//6 50//6 39//6 
f 39//6 38//6 49//6 
f 44//8 43//8 50//8 
f 50//8 49//8 44//8 
f 42//6 49//6 38//6 
f 38//6 29//6 42//6 
f 17//7 51//7 52//7 
f 52//7 18//7 17//7 
f 51//7 53//7 54//7 
f 54//7 52//7 51//7 
f 37//12 45//12 48//12 
f 48//12 38//12 37//12 
f 55//7 48//7 47//7 
f 47//7 56//7 55//7 
f 53//7 55//7 56//7 
f 56//7 54//7 53//7 
f 51//7 17//7 48//7 
f 48//7 55//7 51//7 
f 44//16 49//16 55//16 
f 55//16 53//16 44//16 
f 42//11 44//11 53//11 
f 53//11 51//11 42//11 
f 50//10 43//10 54//10 
f 54//10 56//10 50//10 
f 39//17 50//17 56//17 
f 56//17 47//17 39//17 
f 41//13 36//13 18//13 
f 18//13 52//13 41//13 
f 49//18 42//18 51//18 
f 51//18 55//18 49//18 
f 29//19 38//19 48//19 
f 48//19 17//19 29//19 
f 39//10 47//10 46//10 
f 46//10 40//10 39//10 
f 43//13 41//13 52//13 
f 52//13 54//13 43//13 
f 57//6 58//6 59//6 
f 59//6 60//6 57//6 
f 58//6 57//6 61//6 
f 61//6 62//6 58//6 
f 62//6 61//6 63//6 
f 63//6 64//6 62//6 
f 65//7 66//7 67//7 
f 67//7 68//7 65//7 
f 69//6 70//6 20//6 
f 20//6 19//6 69//6 
f 64//6 63//6 70//6 
f 70//6 69//6 64//6 
f 62//6 69//6 19//6 
f 19//6 58//6 62//6 
f 65//7 71//7 72//7 
f 72//7 66//7 65//7 
f 71//7 73//7 74//7 
f 74//7 72//7 71//7 
f 58//13 65//13 68//13 
f 68//13 59//13 58//13 
f 75//7 30//7 33//7 
f 33//7 76//7 75//7 
f 73//7 75//7 76//7 
f 76//7 74//7 73//7 
f 71//7 65//7 30//7 
f 30//7 75//7 71//7 
f 64//17 69//17 75//17 
f 75//17 73//17 64//17 
f 62//13 64//13 73//13 
f 73//13 71//13 62//13 
f 70//16 63//16 74//16 
f 74//16 76//16 70//16 
f 20//16 70//16 76//16 
f 76//16 33//16 20//16 
f 60//9 67//9 66//9 
f 66//9 57//9 60//9 
f 61//11 57//11 66//11 
f 66//11 72//11 61//11 
f 69//20 62//20 71//20 
f 71//20 75//20 69//20 
f 58//21 19//21 30//21 
f 30//21 65//21 58//21 
f 63//9 61//9 72//9 
f 72//9 74//9 63//9 
f 59//6 77//6 78//6 
f 78//6 60//6 59//6 
f 77//6 79//6 80//6 
f 80//6 78//6 77//6 
f 81//6 37//6 40//6 
f 40//6 82//6 81//6 
f 79//6 81//6 82//6 
f 82//6 80//6 79//6 
f 77//6 59//6 37//6 
f 37//6 81//6 77//6 
f 68//7 67//7 83//7 
f 83//7 84//7 68//7 
f 84//7 83//7 85//7 
f 85//7 86//7 84//7 
f 87//7 88//7 46//7 
f 46//7 45//7 87//7 
f 86//7 85//7 88//7 
f 88//7 87//7 86//7 
f 84//7 87//7 45//7 
f 45//7 68//7 84//7 
f 79//12 86//12 87//12 
f 87//12 81//12 79//12 
f 77//13 84//13 86//13 
f 86//13 79//13 77//13 
f 82//17 88//17 85//17 
f 85//17 80//17 82//17 
f 40//10 46//10 88//10 
f 88//10 82//10 40//10 
f 78//11 83//11 67//11 
f 67//11 60//11 78//11 
f 81//22 87//22 84//22 
f 84//22 77//22 81//22 
f 59//23 68//23 45//23 
f 45//23 37//23 59//23 
f 80//9 85//9 83//9 
f 83//9 78//9 80//9 
f 9//6 12//6 36//6 
f 36//6 29//6 9//6 
# 176 faces

