# 3ds Max Wavefront OBJ Exporter v0.97b - (c)2007 guruware
# File Created: 12.05.2020 22:40:40

mtllib buro.mtl

#
# object Side_Table
#

v  -26.3253 16.6701 -20.5101
v  26.3253 16.6701 -20.5101
v  26.3253 16.6701 20.2179
v  -26.3253 16.6701 20.2179
v  -24.7837 18.0416 -19.5315
v  24.6752 18.0416 -19.5315
v  24.6752 31.9141 -19.5315
v  -24.7837 31.9141 -19.5315
v  -26.3253 33.2923 20.2179
v  26.3253 33.2923 20.2179
v  26.3253 43.8458 20.2179
v  -26.3253 43.8458 20.2179
v  26.3253 33.2923 -20.5101
v  24.6752 31.9141 20.2179
v  -24.7837 31.9141 20.2179
v  24.6752 18.0416 20.2179
v  -26.3253 33.2923 -20.5101
v  -26.3253 43.8458 -20.5101
v  26.3253 43.8458 -20.5101
v  -24.7837 18.0416 20.2179
v  16.4368 2.1124 18.3404
v  16.4368 2.2048 -18.3902
v  16.4368 0.5864 -20.0649
v  16.4368 0.4940 20.2020
v  19.3138 0.4940 20.2020
v  19.3138 0.4940 -20.0649
v  19.3138 2.1124 -18.3902
v  19.3138 2.1124 18.3404
v  16.4368 15.0637 -18.3902
v  16.4368 16.9646 -20.0649
v  19.3138 14.9713 -18.3902
v  19.3138 14.9713 18.3404
v  19.3138 16.8722 20.2020
v  16.4368 14.9713 18.3404
v  16.4368 16.8722 20.2020
v  19.3138 16.8722 -20.0649
v  6.0965 35.7783 19.6096
v  6.0965 36.8980 19.6096
v  7.1489 36.8980 19.6096
v  7.1489 35.7783 19.6096
v  6.0965 35.7783 20.9529
v  7.1489 35.7783 21.9103
v  6.0965 36.8980 20.9529
v  7.1489 36.8980 21.9103
v  -7.1349 35.7783 21.9103
v  -6.0825 35.7783 20.9529
v  -16.4045 0.4940 20.1149
v  -16.4045 0.4940 -20.0625
v  -16.4045 2.1124 -18.4201
v  -16.4045 2.1124 18.3901
v  -19.2116 2.1124 -18.4201
v  -19.2116 0.4940 -20.0625
v  -19.2116 0.4940 20.1149
v  -19.2116 2.1124 18.3901
v  -16.4045 16.8722 -20.0625
v  -16.4045 15.1124 -18.4201
v  -19.2116 15.1124 -18.4201
v  -19.2116 16.8722 20.1149
v  -19.2116 15.1124 18.3901
v  -16.4045 15.1124 18.3901
v  -16.4045 16.8722 20.1149
v  -19.2116 16.8722 -20.0625
v  -7.1349 36.8980 19.6096
v  -6.0825 36.8980 19.6096
v  -6.0825 35.7783 19.6096
v  -7.1349 35.7783 19.6096
v  -6.0825 36.8980 20.9529
v  -7.1349 36.8980 21.9103
# 68 vertices

vn 0.0000 -1.0000 -0.0000
vn 0.0000 0.0000 1.0000
vn 1.0000 0.0000 -0.0000
vn -1.0000 0.0000 -0.0000
vn 0.0000 0.0000 -1.0000
vn 0.0000 1.0000 -0.0000
vn 0.0161 0.9999 0.0013
vn -0.0161 -0.9999 -0.0013
# 8 vertex normals

o Side_Table
g Side_Table
usemtl Material__36
s off
f 1//1 2//1 3//1 
f 3//1 4//1 1//1 
f 5//2 6//2 7//2 
f 7//2 8//2 5//2 
f 9//2 10//2 11//2 
f 11//2 12//2 9//2 
f 10//3 3//3 2//3 
f 2//3 13//3 10//3 
f 8//1 7//1 14//1 
f 14//1 15//1 8//1 
f 14//4 7//4 6//4 
f 6//4 16//4 14//4 
f 17//5 18//5 19//5 
f 19//5 13//5 17//5 
f 19//6 18//6 12//6 
f 12//6 11//6 19//6 
f 6//6 5//6 20//6 
f 20//6 16//6 6//6 
f 9//4 17//4 1//4 
f 1//4 4//4 9//4 
f 5//3 8//3 15//3 
f 15//3 20//3 5//3 
f 20//2 4//2 3//2 
f 3//2 16//2 20//2 
f 11//3 10//3 13//3 
f 13//3 19//3 11//3 
f 1//5 17//5 13//5 
f 13//5 2//5 1//5 
f 18//4 17//4 9//4 
f 9//4 12//4 18//4 
f 4//2 20//2 15//2 
f 15//2 9//2 4//2 
f 14//2 10//2 9//2 
f 9//2 15//2 14//2 
f 14//2 16//2 3//2 
f 3//2 10//2 14//2 
usemtl Material__35
s 2
f 21//4 22//4 23//4 
f 23//4 24//4 21//4 
s 4
f 25//3 26//3 27//3 
f 27//3 28//3 25//3 
s 64
f 21//7 28//7 27//7 
f 27//7 22//7 21//7 
s off
f 23//4 22//4 29//4 
f 29//4 30//4 23//4 
f 22//2 27//2 31//2 
f 31//2 29//2 22//2 
f 25//3 28//3 32//3 
f 32//3 33//3 25//3 
f 21//5 34//5 32//5 
f 32//5 28//5 21//5 
s 2
f 35//4 30//4 29//4 
f 29//4 34//4 35//4 
s 4
f 31//3 36//3 33//3 
f 33//3 32//3 31//3 
s 64
f 31//8 32//8 34//8 
f 34//8 29//8 31//8 
s off
f 31//3 27//3 26//3 
f 26//3 36//3 31//3 
f 36//5 26//5 23//5 
f 23//5 30//5 36//5 
f 34//4 21//4 24//4 
f 24//4 35//4 34//4 
f 24//2 25//2 33//2 
f 33//2 35//2 24//2 
s 64
f 37//5 38//5 39//5 
f 39//5 40//5 37//5 
s off
f 41//1 37//1 40//1 
f 40//1 42//1 41//1 
f 43//4 38//4 37//4 
f 37//4 41//4 43//4 
f 43//6 44//6 39//6 
f 39//6 38//6 43//6 
f 42//3 40//3 39//3 
f 39//3 44//3 42//3 
s 2
f 42//1 45//1 46//1 
f 46//1 41//1 42//1 
f 47//3 48//3 49//3 
f 49//3 50//3 47//3 
s 4
f 51//4 52//4 53//4 
f 53//4 54//4 51//4 
s 64
f 51//6 54//6 50//6 
f 50//6 49//6 51//6 
s off
f 48//3 55//3 56//3 
f 56//3 49//3 48//3 
f 56//2 57//2 51//2 
f 51//2 49//2 56//2 
f 53//4 58//4 59//4 
f 59//4 54//4 53//4 
f 59//5 60//5 50//5 
f 50//5 54//5 59//5 
s 2
f 56//3 55//3 61//3 
f 61//3 60//3 56//3 
s 4
f 58//4 62//4 57//4 
f 57//4 59//4 58//4 
s 64
f 60//1 59//1 57//1 
f 57//1 56//1 60//1 
s off
f 57//4 62//4 52//4 
f 52//4 51//4 57//4 
f 55//5 48//5 52//5 
f 52//5 62//5 55//5 
f 60//3 61//3 47//3 
f 47//3 50//3 60//3 
f 58//2 53//2 47//2 
f 47//2 61//2 58//2 
s 64
f 63//5 64//5 65//5 
f 65//5 66//5 63//5 
f 67//5 43//5 41//5 
f 41//5 46//5 67//5 
s off
f 66//1 65//1 46//1 
f 46//1 45//1 66//1 
f 65//3 64//3 67//3 
f 67//3 46//3 65//3 
f 67//6 64//6 63//6 
f 63//6 68//6 67//6 
f 63//4 66//4 45//4 
f 45//4 68//4 63//4 
s 4
f 43//6 67//6 68//6 
f 68//6 44//6 43//6 
s 16
f 44//2 68//2 45//2 
f 45//2 42//2 44//2 
# 120 faces

